<svg width="137" height="137" viewBox="0 0 137 137" fill="none" xmlns="http://www.w3.org/2000/svg">
<path d="M92.9644 53.8221C92.9599 48.4197 88.5804 44.0417 83.1795 44.0357H53.822V63.6069H83.1795C88.5804 63.6024 92.9599 59.2229 92.9644 53.8221Z" fill="#FFAB2D"/>
<path d="M53.822 92.9645H83.1795C88.5834 92.9645 92.9644 88.5835 92.9644 83.1796C92.9644 77.7743 88.5834 73.3933 83.1795 73.3933H53.822V92.9645Z" fill="#FFAB2D"/>
<path d="M68.5001 9.15527e-05C30.6687 9.15527e-05 0.00012207 30.6687 0.00012207 68.5001C0.00012207 106.332 30.6687 137 68.5001 137C106.332 137 137 106.332 137 68.5001C136.957 30.6866 106.314 0.0433939 68.5001 9.15527e-05V9.15527e-05ZM102.751 83.1781C102.737 93.9828 93.9829 102.737 83.1797 102.749V107.643C83.1797 110.345 80.9877 112.536 78.2865 112.536C75.5838 112.536 73.3933 110.345 73.3933 107.643V102.749H63.6084V107.643C63.6084 110.345 61.4164 112.536 58.7153 112.536C56.0126 112.536 53.8221 110.345 53.8221 107.643V102.749H39.144C36.4414 102.749 34.2509 100.559 34.2509 97.8577C34.2509 95.155 36.4414 92.9645 39.144 92.9645H44.0357V44.0357H39.144C36.4414 44.0357 34.2509 41.8452 34.2509 39.1425C34.2509 36.4399 36.4414 34.2493 39.144 34.2493H53.8221V29.3577C53.8221 26.655 56.0126 24.4645 58.7153 24.4645C61.4179 24.4645 63.6084 26.655 63.6084 29.3577V34.2493H73.3933V29.3577C73.3933 26.655 75.5838 24.4645 78.2865 24.4645C80.9891 24.4645 83.1797 26.655 83.1797 29.3577V34.2493C93.9426 34.2045 102.705 42.8919 102.751 53.6548C102.775 59.3543 100.304 64.7791 95.9867 68.5001C100.263 72.1793 102.731 77.5354 102.751 83.1781V83.1781Z" fill="#FFAB2D"/>
</svg>
