<svg width="137" height="137" viewBox="0 0 137 137" fill="none" xmlns="http://www.w3.org/2000/svg">
<path d="M68.5 0C30.6686 0 0 30.6686 0 68.5C0 106.331 30.6686 137 68.5 137C106.331 137 137 106.331 137 68.5C136.958 30.6865 106.313 0.0418093 68.5 0ZM40.213 63.6068H59.7843C62.4869 63.6068 64.6774 65.7973 64.6774 68.5C64.6774 71.2027 62.4869 73.3932 59.7843 73.3932H40.213C37.5104 73.3932 35.3199 71.2027 35.3199 68.5C35.3199 65.7973 37.5119 63.6068 40.213 63.6068ZM101.393 56.6456L95.5088 86.0883C94.1231 92.9226 88.122 97.8411 81.1488 97.8576H40.213C37.5104 97.8576 35.3199 95.6671 35.3199 92.9644C35.3199 90.2617 37.5119 88.0712 40.213 88.0712H81.1488C83.4617 88.0652 85.4522 86.4347 85.9121 84.168L91.7982 54.7253C92.3208 52.0973 90.6156 49.544 87.9891 49.0214C87.677 48.9601 87.3605 48.9288 87.0439 48.9288H49.9994C47.2967 48.9288 45.1062 46.7383 45.1062 44.0356C45.1062 41.3329 47.2967 39.1424 49.9994 39.1424H87.0439C95.128 39.1454 101.679 45.699 101.677 53.7831C101.677 54.7433 101.582 55.7019 101.393 56.6456Z" fill="#3693FF"/>
</svg>
