<svg width="137" height="137" viewBox="0 0 137 137" fill="none" xmlns="http://www.w3.org/2000/svg">
<path d="M70.3615 78.5206C69.1671 78.9977 67.8366 78.9977 66.6421 78.5206L53.8232 73.3927L68.5018 102.75L83.1804 73.3927L70.3615 78.5206Z" fill="#DC3CCC"/>
<path d="M68.4982 68.5L88.0696 61.6503L68.4982 34.25L48.9268 61.6503L68.4982 68.5Z" fill="#DC3CCC"/>
<path d="M68.5 0C30.6686 0 0 30.6686 0 68.5C0 106.331 30.6686 137 68.5 137C106.331 137 137 106.331 137 68.5C136.958 30.6865 106.313 0.0418093 68.5 0V0ZM97.3409 65.7958L72.8765 114.725C71.6685 117.142 68.7285 118.122 66.3125 116.914C65.3643 116.44 64.5968 115.673 64.1235 114.725L39.6591 65.7958C38.899 64.2698 38.9856 62.4586 39.8875 61.0117L64.3519 21.8692C65.978 19.5787 69.151 19.0381 71.4416 20.6642C71.9089 20.9957 72.3166 21.4019 72.6481 21.8692L97.111 61.0117C98.0144 62.4586 98.101 64.2698 97.3409 65.7958V65.7958Z" fill="#DC3CCC"/>
</svg>
